<?xml version="1.0" standalone="no"?>
<!DOCTYPE svg PUBLIC "-//W3C//DTD SVG 20010904//EN"
 "http://www.w3.org/TR/2001/REC-SVG-20010904/DTD/svg10.dtd">
<svg version="1.0" xmlns="http://www.w3.org/2000/svg"
 width="512.000000pt" height="512.000000pt" viewBox="0 0 512.000000 512.000000"
 preserveAspectRatio="xMidYMid meet">

<g transform="translate(0.000000,512.000000) scale(0.100000,-0.100000)"
fill="#000" stroke="none">
<path d="M2362 4900 c-553 -54 -1033 -273 -1428 -652 -364 -350 -604 -802
-688 -1294 -36 -211 -46 -491 -21 -607 19 -92 77 -197 147 -268 l58 -59 0
-550 0 -550 27 -29 c46 -49 874 -663 909 -674 24 -7 39 -6 60 5 16 8 224 166
463 352 238 186 454 348 480 360 40 18 64 21 191 21 128 0 151 -3 192 -22 26
-12 246 -176 490 -366 244 -189 453 -347 465 -351 12 -4 34 -4 49 0 33 8 894
651 918 685 14 21 16 82 16 570 l0 547 60 62 c75 78 133 190 150 292 24 140 1
467 -50 703 -181 837 -859 1538 -1698 1756 -237 61 -568 90 -790 69z m448
-225 c907 -109 1638 -777 1834 -1675 35 -162 49 -311 44 -485 -3 -139 -5 -154
-30 -201 -15 -28 -50 -72 -78 -97 -93 -84 88 -77 -2020 -77 -2108 0 -1927 -7
-2020 77 -28 25 -63 69 -78 97 -24 46 -27 63 -30 186 -27 940 572 1792 1465
2083 298 97 613 129 913 92z m-2097 -2755 l27 0 0 -367 c0 -226 4 -383 11
-406 9 -33 42 -63 282 -255 150 -120 283 -226 297 -235 32 -22 78 -22 115 2
17 10 210 159 430 330 240 187 424 323 460 340 143 68 307 68 450 0 36 -17
226 -157 477 -352 229 -179 424 -327 433 -331 30 -11 70 -6 95 11 14 9 147
115 297 235 240 192 273 222 282 255 7 23 11 180 11 406 l0 367 28 0 c15 0 37
3 50 6 l22 6 0 -458 0 -459 -366 -275 c-202 -151 -370 -276 -375 -278 -4 -2
-191 139 -414 313 -224 173 -429 327 -456 340 -83 43 -170 58 -319 58 -145 0
-212 -13 -301 -59 -26 -13 -230 -166 -453 -340 -223 -173 -410 -314 -415 -312
-4 2 -173 127 -375 278 l-366 275 0 459 0 458 23 -6 c12 -3 34 -6 50 -6z
m3445 -347 l-3 -347 -140 -113 c-77 -62 -173 -138 -212 -169 l-72 -56 -362
282 c-199 155 -386 298 -417 317 -132 85 -323 126 -482 105 -100 -14 -222 -54
-290 -97 -25 -15 -213 -158 -418 -317 -262 -204 -376 -287 -385 -281 -7 6
-103 83 -214 172 l-203 162 0 344 0 345 1600 0 1600 0 -2 -347z"/>
<path d="M1868 4254 c-54 -29 -58 -51 -58 -309 0 -203 2 -241 17 -265 42 -72
144 -72 186 0 24 40 25 485 2 530 -28 54 -94 74 -147 44z"/>
<path d="M2508 4254 c-54 -29 -58 -51 -58 -309 0 -203 2 -241 17 -265 42 -72
144 -72 186 0 24 40 25 485 2 530 -28 54 -94 74 -147 44z"/>
<path d="M3148 4254 c-54 -29 -58 -51 -58 -309 0 -203 2 -241 17 -265 42 -72
144 -72 186 0 24 40 25 485 2 530 -28 54 -94 74 -147 44z"/>
</g>
</svg>
